<?xml version="1.0" encoding="utf-8"?>
<!-- Generator: Adobe Illustrator 21.0.0, SVG Export Plug-In . SVG Version: 6.00 Build 0)  -->
<svg version="1.1" id="Livello_1" xmlns="http://www.w3.org/2000/svg" xmlns:xlink="http://www.w3.org/1999/xlink" x="0px" y="0px"
	 viewBox="0 0 1336 642" style="enable-background:new 0 0 1336 642;" xml:space="preserve">
<style type="text/css">
	.st0{fill:#C6C6C5;}
	.st1{fill:#1D1D1B;stroke:#FFFFFF;stroke-width:18.4641;}
	.st2{fill:#1D1D1B;stroke:#C6C6C5;stroke-width:16.6109;}
	.st3{fill:#6F6F6E;stroke:#868686;stroke-width:12.3094;}
	.st4{fill:#9C9B9B;}
	.st5{fill:#0A4786;}
	.st6{fill:#0A4786;stroke:#0A4786;stroke-width:3.0773;}
</style>
<g>
	<polygon class="st0" points="0.4,0 0.8,0.8 1.4,0.4 155.2,262.8 155.1,262.8 255.8,433.9 508.1,0 	"/>
	<polyline class="st1" points="11.8,41.5 165.7,41.5 319.7,41.5 	"/>
	<line class="st1" x1="42.9" y1="96.9" x2="288.5" y2="96.9"/>
	<line class="st1" x1="77.9" y1="152.3" x2="252.4" y2="152.3"/>
	<line class="st1" x1="107.7" y1="207.7" x2="221.2" y2="207.7"/>
	<line class="st2" x1="338.9" y1="4.6" x2="185.1" y2="267"/>
	<line class="st3" x1="188.1" y1="433.2" x2="1335.6" y2="433.2"/>
	<line class="st3" x1="255.5" y1="357.7" x2="255.5" y2="642"/>
	<g>
		<path class="st4" d="M443.2,387.6v8.2c-4.6,2.6-9.4,3.9-14.5,3.9c-3.8,0-7.5-0.7-11.1-2.2c-7.3-3.1-12.6-8.4-15.8-15.8
			c-1.6-3.7-2.3-7.6-2.3-11.7c0-6.1,1.9-11.6,5.6-16.4c2.9-3.6,6.4-6.5,10.5-8.7c4.3-2.2,8.6-3.2,13.2-3.2c5.4,0,10.2,1.2,14.4,3.6
			v8.1c-4.3-3.7-9.3-5.5-14.9-5.5c-5.9,0-11,2.2-15.4,6.6c-4.4,4.4-6.5,9.6-6.5,15.5c0,6.7,2.2,12.3,6.5,16.8
			c4.4,4.4,9.5,6.7,15.4,6.7C433.7,393.3,438.6,391.4,443.2,387.6z"/>
		<path class="st4" d="M521.6,341.6c8.1,0,15,2.8,20.7,8.4c5.7,5.6,8.5,12.5,8.5,20.6c0,5.2-1.3,10-3.9,14.5
			c-2.6,4.4-6.1,8-10.6,10.6c-4.5,2.6-9.4,3.9-14.7,3.9c-5.2,0-10-1.3-14.5-3.9s-8-6.1-10.6-10.6c-2.6-4.5-4-9.4-4-14.5
			c0-5.2,1.3-10,3.9-14.5c2.6-4.4,6.2-8,10.7-10.6C511.6,342.9,516.4,341.6,521.6,341.6z M521.6,348c-4,0-7.7,1-11.1,3
			c-3.4,2-6.1,4.7-8.1,8.2c-2,3.5-3,7.3-3,11.4c0,4.1,1,7.8,2.9,11.2c2,3.4,4.7,6.2,8.1,8.2c3.5,2,7.2,3.1,11.1,3.1
			c4,0,7.7-1,11.1-3c3.4-2,6.1-4.8,8.1-8.2c2-3.5,3-7.2,3-11.3c0-4-1-7.8-2.9-11.3c-1.9-3.5-4.6-6.3-8.1-8.3
			C529.4,349,525.7,348,521.6,348z"/>
		<path class="st4" d="M629.2,353.4c-2.1-3.6-5.1-5.4-9.1-5.4c-3.5,0-6.2,1.4-8,4.1c-0.8,1.2-1.2,2.4-1.2,3.6c0,3.5,1.8,6,5.4,7.4
			l6.3,2.5c6.5,2.5,10.6,5.8,12.3,9.9c1,2.3,1.5,4.7,1.5,7.1c0,3.5-1,6.7-3,9.5c-2,2.8-4.6,4.9-7.9,6.3c-2.3,1-4.6,1.5-6.7,1.5
			c-6.2,0-11-2.5-14.4-7.5c-1.7-2.4-2.6-5.1-3-8.2l6.9-1.5c0,2.2,0.6,4.2,1.7,5.9c2.1,3.1,5.1,4.7,9.1,4.7c2.7,0,5-0.9,6.9-2.6
			c1.9-1.8,3-4,3.2-6.6l0.1-1.8c0.2-2.7-0.8-5-3-6.7c-1.7-1.3-4.3-2.8-7.8-4.3c-4.1-1.8-6.8-3-8.1-3.8c-4.5-2.7-6.7-6.6-6.7-11.9
			c0-3.5,1.5-6.7,4.4-9.4c3.2-3,7.2-4.5,12.1-4.5c6.3,0,11,2.8,14.2,8.5L629.2,353.4z"/>
		<path class="st4" d="M699.7,349.2h-13.3v-6.3h33.5v6.3h-13.3v49.3h-6.9V349.2z"/>
		<path class="st4" d="M772.2,342.8h10c6.5,0,11.1,1,14,3c4.3,3.1,6.5,7.3,6.5,12.5c0,4.1-1.2,7.6-3.6,10.6
			c-2.4,2.9-5.7,4.7-9.7,5.3l17.6,24.2h-8.3L782,375h-2.9v23.5h-6.9V342.8z M779.1,349v20.2c3.9,0,7-0.3,9.4-0.8
			c5-1.2,7.5-4.4,7.5-9.6c0-6.5-4.9-9.8-14.7-9.8H779.1z"/>
		<path class="st4" d="M891.6,342.8h6.9v35.4c0,6.3-1.8,11.4-5.5,15.4c-3.8,4.1-8.8,6.1-15,6.1c-4.1,0-7.7-0.9-10.8-2.8
			c-3.2-2-5.7-4.8-7.3-8.4c-1.4-3.2-2.2-6.5-2.2-9.9v-35.7h6.9v34c0,4.8,1,8.6,3,11.4c2.3,3.2,5.8,4.9,10.4,4.9
			c9.1,0,13.6-5.6,13.6-16.9V342.8z"/>
		<path class="st4" d="M976.8,349.2h-24.2v-6.3h35.6l-28.3,49.3h28.3v6.3h-39.5L976.8,349.2z"/>
		<path class="st4" d="M1040.7,342.8h6.9v55.7h-6.9V342.8z"/>
		<path class="st4" d="M1131.4,341.6c8.1,0,15,2.8,20.7,8.4c5.7,5.6,8.5,12.5,8.5,20.6c0,5.2-1.3,10-3.9,14.5
			c-2.6,4.4-6.1,8-10.6,10.6c-4.5,2.6-9.4,3.9-14.7,3.9c-5.2,0-10-1.3-14.5-3.9c-4.4-2.6-8-6.1-10.6-10.6c-2.6-4.5-4-9.4-4-14.5
			c0-5.2,1.3-10,3.9-14.5c2.6-4.4,6.2-8,10.7-10.6C1121.3,342.9,1126.2,341.6,1131.4,341.6z M1131.4,348c-4,0-7.7,1-11.1,3
			c-3.4,2-6.1,4.7-8.1,8.2c-2,3.5-3,7.3-3,11.4c0,4.1,1,7.8,2.9,11.2c2,3.4,4.7,6.2,8.1,8.2c3.5,2,7.2,3.1,11.1,3.1
			c4,0,7.7-1,11.1-3c3.4-2,6.1-4.8,8.1-8.2c2-3.5,3-7.2,3-11.3c0-4-1-7.8-2.9-11.3c-1.9-3.5-4.6-6.3-8.1-8.3
			C1139.2,349,1135.4,348,1131.4,348z"/>
		<path class="st4" d="M1214.9,340.1l41.8,44v-41.2h7.1v58l-42-43.9v41.6h-6.9V340.1z"/>
		<path class="st4" d="M1321.4,342.8h6.9v55.7h-6.9V342.8z"/>
	</g>
	<g>
		<path class="st4" d="M431.9,513.6l19.2-44l11.4,58.1h-7.2l-6.5-37.1l-16.8,38.4l-16.8-38.6l-6.7,37.2h-7l11.4-58.2L431.9,513.6z"
			/>
		<path class="st4" d="M521.4,472.1h29.9v6.3h-23V494h22.4v6.3h-22.4v21.1h23v6.3h-29.9V472.1z"/>
		<path class="st4" d="M652.4,516.8v8.2c-4.6,2.6-9.4,3.9-14.5,3.9c-3.8,0-7.5-0.7-11.1-2.2c-7.3-3.1-12.6-8.4-15.8-15.8
			c-1.6-3.7-2.3-7.6-2.3-11.7c0-6.1,1.9-11.6,5.6-16.4c2.9-3.6,6.4-6.5,10.5-8.7c4.3-2.2,8.6-3.2,13.2-3.2c5.4,0,10.2,1.2,14.4,3.6
			v8.1c-4.3-3.7-9.3-5.5-14.9-5.5c-5.9,0-11,2.2-15.4,6.6c-4.4,4.4-6.5,9.6-6.5,15.5c0,6.7,2.2,12.3,6.5,16.8
			c4.4,4.4,9.5,6.7,15.4,6.7C642.8,522.6,647.8,520.7,652.4,516.8z"/>
		<path class="st4" d="M750.9,516.8v8.2c-4.6,2.6-9.4,3.9-14.5,3.9c-3.8,0-7.5-0.7-11.1-2.2c-7.3-3.1-12.6-8.4-15.8-15.8
			c-1.6-3.7-2.3-7.6-2.3-11.7c0-6.1,1.9-11.6,5.6-16.4c2.9-3.6,6.4-6.5,10.5-8.7c4.3-2.2,8.6-3.2,13.2-3.2c5.4,0,10.2,1.2,14.4,3.6
			v8.1c-4.3-3.7-9.3-5.5-14.9-5.5c-5.9,0-11,2.2-15.4,6.6c-4.4,4.4-6.5,9.6-6.5,15.5c0,6.7,2.2,12.3,6.5,16.8
			c4.4,4.4,9.5,6.7,15.4,6.7C741.4,522.6,746.4,520.7,750.9,516.8z"/>
		<path class="st4" d="M833.3,469.6l26.7,58.1h-7.5l-6.4-14h-25.4l-6.3,14h-7.6L833.3,469.6z M833.2,484.9l-9.8,22.5h19.7
			L833.2,484.9z"/>
		<path class="st4" d="M916.8,469.3l41.8,44v-41.2h7.1v58l-42-43.9v41.6h-6.9V469.3z"/>
		<path class="st4" d="M1028.5,472.1h6.9v55.7h-6.9V472.1z"/>
		<path class="st4" d="M1139.3,516.8v8.2c-4.6,2.6-9.4,3.9-14.5,3.9c-3.8,0-7.5-0.7-11.1-2.2c-7.3-3.1-12.6-8.4-15.8-15.8
			c-1.6-3.7-2.3-7.6-2.3-11.7c0-6.1,1.9-11.6,5.6-16.4c2.9-3.6,6.4-6.5,10.5-8.7c4.3-2.2,8.6-3.2,13.2-3.2c5.4,0,10.2,1.2,14.4,3.6
			v8.1c-4.3-3.7-9.3-5.5-14.9-5.5c-5.9,0-11,2.2-15.4,6.6c-4.4,4.4-6.5,9.6-6.5,15.5c0,6.7,2.2,12.3,6.5,16.8
			c4.4,4.4,9.5,6.7,15.4,6.7C1129.7,522.6,1134.7,520.7,1139.3,516.8z"/>
		<path class="st4" d="M1198.7,472.1h7v22.4h26.6v-22.4h6.9v55.7h-6.9v-26.8h-26.6v26.8h-7V472.1z"/>
		<path class="st4" d="M1302.2,472.1h29.9v6.3h-23V494h22.4v6.3h-22.4v21.1h23v6.3h-29.9V472.1z"/>
		<path class="st4" d="M405.1,582.9h11.6c6.1,0,11.5,1.1,16.3,3.3c5.4,2.5,9.4,6.2,12,11.1c2,3.7,3,7.9,3,12.7
			c0,8.1-2.4,14.7-7.3,19.9c-5.4,5.8-13.2,8.7-23.4,8.7h-12.3V582.9z M412.1,589.2v43h4.2c10.6,0,17.9-3.5,21.9-10.4
			c1.9-3.3,2.8-7,2.8-11.2c0-7.2-2.5-12.7-7.5-16.4c-4.4-3.3-10.4-4.9-17.9-4.9H412.1z"/>
		<path class="st4" d="M492.8,582.9h6.9v55.7h-6.9V582.9z"/>
		<path class="st4" d="M608.7,582.9h8.8c3.6,0,6.9,0.3,9.8,0.8c3.9,0.7,6.8,2.5,8.9,5.3c1.9,2.6,2.9,6,2.9,10
			c0,5.6-2.1,9.8-6.2,12.7c-3.5,2.4-7.4,3.5-11.7,3.5h-5.6v23.3h-7.1L608.7,582.9z M618.7,589.1h-3v20h2.3
			c9.8,0.3,14.7-3.2,14.7-10.6C632.6,592.2,628,589.1,618.7,589.1z"/>
		<path class="st4" d="M682,582.9h10c6.5,0,11.1,1,14,3c4.3,3.1,6.5,7.3,6.5,12.5c0,4.1-1.2,7.6-3.6,10.6c-2.4,2.9-5.7,4.7-9.7,5.3
			l17.6,24.2h-8.3L691.8,615h-2.9v23.5H682V582.9z M688.9,589.1v20.2c3.9,0,7-0.3,9.4-0.8c5-1.2,7.5-4.4,7.5-9.6
			c0-6.5-4.9-9.8-14.7-9.8H688.9z"/>
		<path class="st4" d="M759.1,582.9H789v6.3h-23v15.6h22.4v6.3H766v21.1h23v6.3h-29.9V582.9z"/>
		<path class="st4" d="M875,627.6v8.2c-4.6,2.6-9.4,3.9-14.5,3.9c-3.8,0-7.5-0.7-11.1-2.2c-7.3-3.1-12.6-8.4-15.8-15.8
			c-1.6-3.7-2.3-7.6-2.3-11.7c0-6.1,1.9-11.6,5.6-16.4c2.9-3.6,6.4-6.5,10.5-8.7c4.3-2.2,8.6-3.2,13.2-3.2c5.4,0,10.2,1.2,14.4,3.6
			v8.1c-4.3-3.7-9.3-5.5-14.9-5.5c-5.9,0-11,2.2-15.4,6.6c-4.4,4.4-6.5,9.6-6.5,15.5c0,6.7,2.2,12.3,6.5,16.8
			c4.4,4.4,9.5,6.7,15.4,6.7C865.4,633.4,870.4,631.4,875,627.6z"/>
		<path class="st4" d="M919.7,582.9h6.9v55.7h-6.9V582.9z"/>
		<path class="st4" d="M999.2,593.4c-2.1-3.6-5.1-5.4-9.1-5.4c-3.5,0-6.2,1.4-8,4.1c-0.8,1.2-1.2,2.4-1.2,3.6c0,3.5,1.8,6,5.4,7.4
			l6.3,2.5c6.5,2.5,10.6,5.8,12.3,9.9c1,2.3,1.5,4.7,1.5,7.1c0,3.5-1,6.7-3,9.5c-2,2.8-4.6,4.9-7.9,6.3c-2.3,1-4.6,1.5-6.7,1.5
			c-6.2,0-11-2.5-14.4-7.5c-1.7-2.4-2.6-5.1-3-8.2l6.9-1.5c0,2.2,0.6,4.2,1.7,5.9c2.1,3.1,5.1,4.7,9.1,4.7c2.7,0,5-0.9,6.9-2.6
			c1.9-1.8,3-4,3.2-6.6l0.1-1.8c0.2-2.7-0.8-5-3-6.7c-1.7-1.3-4.3-2.8-7.8-4.3c-4.1-1.8-6.8-3-8.1-3.8c-4.5-2.7-6.7-6.6-6.7-11.9
			c0-3.5,1.5-6.7,4.4-9.4c3.2-3,7.2-4.5,12.1-4.5c6.3,0,11,2.8,14.2,8.5L999.2,593.4z"/>
		<path class="st4" d="M1051.3,582.9h6.9v55.7h-6.9V582.9z"/>
		<path class="st4" d="M1132.1,581.7c8.1,0,15,2.8,20.7,8.4c5.7,5.6,8.5,12.5,8.5,20.6c0,5.2-1.3,10-3.9,14.5
			c-2.6,4.4-6.1,8-10.6,10.6c-4.5,2.6-9.4,3.9-14.7,3.9c-5.2,0-10-1.3-14.5-3.9c-4.4-2.6-8-6.1-10.6-10.6c-2.6-4.5-4-9.4-4-14.5
			c0-5.2,1.3-10,3.9-14.5c2.6-4.4,6.2-8,10.7-10.6C1122.1,583,1126.9,581.7,1132.1,581.7z M1132.1,588c-4,0-7.7,1-11.1,3
			c-3.4,2-6.1,4.7-8.1,8.2c-2,3.5-3,7.3-3,11.4c0,4.1,1,7.8,2.9,11.2s4.7,6.2,8.1,8.2c3.5,2,7.2,3.1,11.1,3.1c4,0,7.7-1,11.1-3
			c3.4-2,6.1-4.8,8.1-8.2c2-3.5,3-7.2,3-11.3c0-4-1-7.8-2.9-11.3c-1.9-3.5-4.6-6.3-8.1-8.3C1139.9,589.1,1136.2,588,1132.1,588z"/>
		<path class="st4" d="M1205.8,580.1l41.8,44v-41.2h7.1v58l-42-43.9v41.6h-6.9V580.1z"/>
		<path class="st4" d="M1302.6,582.9h29.9v6.3h-23v15.6h22.4v6.3h-22.4v21.1h23v6.3h-29.9V582.9z"/>
	</g>
	<path class="st5" d="M568.2,302.8V50.3h66.2l122,154.3h0.7V50.3h66.2v252.5h-66.2L635.2,148h-0.8v154.8H568.2z"/>
	<path class="st5" d="M977.2,161.9H1109c-0.3,15.7-1.1,28.2-2.3,37.4c-0.9,9.3-3.4,19.8-7.4,31.6c-4,11-9.4,21.3-16.4,30.7
		c-23.8,33-58.8,49.5-105.1,49.5c-26,0-49.6-5.6-70.7-16.7c-21.2-11.4-37.2-27.2-48.1-47.3c-11.6-20.4-17.4-43.5-17.4-69.4
		c0-19.4,3.3-37.9,9.9-55.6c6.5-16.8,16-31.2,28.4-43.2c12.1-11.8,26.8-20.9,44-27.5c17-6.4,35.7-9.7,56.2-9.7
		c17.3,0,33.4,2.5,48.4,7.6c14.5,5.3,27.5,13.2,38.8,23.8c11.6,11.2,20.8,24.3,27.8,39.4l-63,25.9c-4.3-12.2-11.4-22-21.3-29.4
		c-9.5-7.1-20.8-10.6-33.9-10.6c-13.9,0-25.9,3.8-35.9,11.3c-10.2,8.1-17.7,18-22.7,29.9c-5.2,12.4-7.8,25.2-7.8,38.4
		c0,13.3,2.6,26,7.8,38.2c5.4,12.2,13.2,22,23.3,29.4c10.4,7.5,22.5,11.3,36.4,11.3c9.5,0,18.2-1.6,26-4.9c7.9-3.5,14.3-8.4,19-14.7
		c4.6-6.1,7.4-14.2,8.4-24.2h-54.2V161.9z"/>
	<g>
		<path class="st6" d="M1173.5,259.2c-2.2-3.7-5.3-5.6-9.5-5.6c-3.7,0-6.4,1.4-8.3,4.3c-0.9,1.3-1.3,2.5-1.3,3.7
			c0,3.7,1.9,6.2,5.7,7.7l6.6,2.6c6.7,2.6,11,6,12.8,10.3c1,2.4,1.5,4.9,1.5,7.4c0,3.7-1,6.9-3.1,9.9c-2.1,2.9-4.8,5.1-8.2,6.6
			c-2.4,1-4.7,1.5-7,1.5c-6.4,0-11.4-2.6-15-7.8c-1.7-2.5-2.8-5.3-3.1-8.5l7.2-1.5c0,2.3,0.6,4.3,1.8,6.1c2.2,3.3,5.3,4.9,9.5,4.9
			c2.8,0,5.2-0.9,7.2-2.7c2-1.8,3.1-4.1,3.4-6.9l0.2-1.9c0.2-2.9-0.8-5.2-3.1-6.9c-1.8-1.4-4.5-2.9-8.1-4.4
			c-4.3-1.8-7.1-3.1-8.4-3.9c-4.7-2.8-7-6.9-7-12.4c0-3.7,1.5-7,4.5-9.8c3.3-3.1,7.5-4.7,12.6-4.7c6.5,0,11.5,2.9,14.8,8.8
			L1173.5,259.2z"/>
		<path class="st6" d="M1204.7,298.5c1.3,0,2.3,0.4,3.2,1.3c0.9,0.9,1.3,2,1.3,3.2c0,1.2-0.4,2.3-1.3,3.1c-0.9,0.9-1.9,1.3-3.2,1.3
			c-1.2,0-2.2-0.4-3.1-1.3c-0.9-0.9-1.3-1.9-1.3-3.1c0-1.3,0.4-2.3,1.3-3.2C1202.4,298.9,1203.4,298.5,1204.7,298.5z"/>
		<path class="st6" d="M1238.1,270.1v6.2c2.1-4.8,5.4-7.1,9.9-7.1c2.3,0,4.3,0.5,5.9,1.6l-3.2,6.5c-1.2-0.9-2.7-1.4-4.6-1.4
			c-5.3,0-8,4-8,12.1v18.3h-6.9v-36.1H1238.1z"/>
		<path class="st6" d="M1266.6,298.5c1.3,0,2.3,0.4,3.2,1.3c0.9,0.9,1.3,2,1.3,3.2c0,1.2-0.4,2.3-1.3,3.1c-0.9,0.9-1.9,1.3-3.2,1.3
			c-1.2,0-2.2-0.4-3.1-1.3c-0.9-0.9-1.3-1.9-1.3-3.1c0-1.3,0.4-2.3,1.3-3.2C1264.3,298.9,1265.4,298.5,1266.6,298.5z"/>
		<path class="st6" d="M1292.9,239.3h7v66.9h-7V239.3z"/>
		<path class="st6" d="M1326.3,298.5c1.3,0,2.3,0.4,3.2,1.3c0.9,0.9,1.3,2,1.3,3.2c0,1.2-0.4,2.3-1.3,3.1c-0.9,0.9-1.9,1.3-3.2,1.3
			c-1.2,0-2.2-0.4-3.1-1.3c-0.9-0.9-1.3-1.9-1.3-3.1c0-1.3,0.4-2.3,1.3-3.2C1324,298.9,1325.1,298.5,1326.3,298.5z"/>
	</g>
	<polyline class="st5" points="388.7,197 477.7,50.1 555.4,50.1 412.2,302.5 331.4,302.5 289.2,51.2 358.6,51.2 	"/>
</g>
</svg>
