<?xml version="1.0" encoding="utf-8"?>
<!-- Generator: Adobe Illustrator 22.1.0, SVG Export Plug-In . SVG Version: 6.00 Build 0)  -->
<svg version="1.1" id="Logo" xmlns="http://www.w3.org/2000/svg" xmlns:xlink="http://www.w3.org/1999/xlink" x="0px" y="0px"
	 viewBox="0 0 114 70" style="enable-background:new 0 0 114 70;" xml:space="preserve">
<style type="text/css">
	.st0{fill:#FFFFFF;}
</style>
<g>
	<g>
		<path class="st0" d="M103,26.8C103,12.1,91.1,0.1,76.4,0c0,0-0.1,0-0.1,0h-8.7c-1.5,0-2.7,1.2-2.7,2.7s1.2,2.7,2.7,2.7h8.6
			C88,5.4,97.6,15,97.6,26.8c0,11.8-9.6,21.4-21.4,21.4H46.4v-5H41v10.4h35.3v0C91,53.6,103,41.6,103,26.8z"/>
	</g>
	<g>
		<path class="st0" d="M0,26.8c0,14.7,11.9,26.7,26.7,26.8c0,0,0.1,0,0.1,0h8.7c1.5,0,2.7-1.2,2.7-2.7s-1.2-2.7-2.7-2.7h-8.6
			C15,48.2,5.4,38.6,5.4,26.8C5.4,15,15,5.4,26.8,5.4h29.8v5H62V0H26.7v0C12,0,0,12,0,26.8z"/>
	</g>
	<g>
		<polygon class="st0" points="27.8,29.2 22.7,15.7 16.5,15.7 25.4,37.8 29.6,37.8 38.8,15.7 32.9,15.7 		"/>
		<polygon class="st0" points="56.6,29.8 48,15.7 41,15.7 41,37.8 46.4,37.8 46.4,23.4 55.3,37.8 62,37.8 62,15.7 56.6,15.7 		"/>
		<path class="st0" d="M77.6,24.4v5.1h3.8v2.9c-0.4,0.2-0.9,0.4-1.5,0.6c-0.7,0.2-1.6,0.3-2.6,0.3c-1,0-1.8-0.2-2.6-0.5
			c-0.8-0.3-1.4-0.8-2-1.4c-0.5-0.6-1-1.3-1.3-2.1c-0.3-0.8-0.4-1.7-0.4-2.6c0-0.9,0.2-1.8,0.4-2.6c0.3-0.8,0.7-1.5,1.3-2.1
			c0.5-0.6,1.2-1,2-1.4c0.8-0.3,1.6-0.5,2.6-0.5c1.2,0,2.1,0.2,2.9,0.5c0.8,0.3,1.5,0.8,2.1,1.4l0.3,0.3l3.8-4.2L86.1,18
			c-1.1-1-2.4-1.8-3.9-2.2c-1.5-0.4-3.1-0.6-4.8-0.6c-1.7,0-3.3,0.3-4.7,0.8c-1.4,0.5-2.7,1.3-3.8,2.3c-1.1,1-1.9,2.2-2.5,3.7
			c-0.6,1.4-0.9,3-0.9,4.8c0,1.8,0.3,3.4,0.9,4.8c0.6,1.4,1.4,2.7,2.5,3.7c1.1,1,2.3,1.8,3.8,2.3c1.4,0.5,3,0.8,4.7,0.8
			c1.6,0,3.2-0.2,4.7-0.5c1.5-0.3,3-0.9,4.4-1.6l0.2-0.1V24.4H77.6z"/>
	</g>
	<g>
		<path class="st0" d="M41.8,61.2h1.5v8.7h-1.5V61.2z"/>
		<path class="st0" d="M45.2,64h1.4v0.9h0c0.1-0.3,0.4-0.6,0.6-0.8c0.3-0.2,0.7-0.3,1.2-0.3c0.4,0,0.7,0.1,1,0.2
			c0.3,0.1,0.5,0.3,0.7,0.5c0.2,0.2,0.3,0.5,0.4,0.7c0.1,0.3,0.1,0.6,0.1,0.9v3.7h-1.5v-3c0-0.2,0-0.3,0-0.5c0-0.2-0.1-0.4-0.1-0.6
			c-0.1-0.2-0.2-0.3-0.3-0.4c-0.1-0.1-0.3-0.2-0.6-0.2c-0.2,0-0.5,0-0.6,0.1c-0.2,0.1-0.3,0.2-0.4,0.3c-0.1,0.1-0.2,0.3-0.2,0.5
			c0,0.2-0.1,0.4-0.1,0.6v3.2h-1.5V64z"/>
		<path class="st0" d="M51.6,65.2V64h1.2v-1.7h1.5V64h1.6v1.3h-1.6v2.6c0,0.3,0.1,0.5,0.2,0.7c0.1,0.2,0.3,0.3,0.7,0.3
			c0.1,0,0.3,0,0.4,0c0.2,0,0.3-0.1,0.4-0.1v1.2c-0.2,0.1-0.3,0.1-0.6,0.2s-0.4,0-0.6,0c-0.4,0-0.7,0-1-0.1
			c-0.2-0.1-0.4-0.2-0.6-0.4c-0.1-0.2-0.2-0.4-0.3-0.7c-0.1-0.3-0.1-0.6-0.1-0.9v-2.7H51.6z"/>
		<path class="st0" d="M58.3,67.4c0,0.4,0.2,0.8,0.5,1c0.3,0.2,0.7,0.4,1.1,0.4c0.4,0,0.7-0.1,0.9-0.2c0.2-0.2,0.5-0.3,0.7-0.6
			l1.1,0.8c-0.3,0.4-0.7,0.7-1.2,0.9C60.9,69.9,60.5,70,60,70c-0.4,0-0.9-0.1-1.3-0.2c-0.4-0.1-0.7-0.4-1-0.6
			c-0.3-0.3-0.5-0.6-0.7-1c-0.2-0.4-0.3-0.8-0.3-1.3c0-0.5,0.1-0.9,0.3-1.3c0.2-0.4,0.4-0.7,0.7-1c0.3-0.3,0.6-0.5,1-0.6
			c0.4-0.1,0.8-0.2,1.3-0.2c0.4,0,0.8,0.1,1.1,0.2c0.3,0.1,0.6,0.4,0.9,0.6c0.2,0.3,0.4,0.6,0.6,1c0.1,0.4,0.2,0.9,0.2,1.4v0.4H58.3
			z M61.3,66.3c0-0.4-0.1-0.8-0.4-1c-0.3-0.3-0.6-0.4-1.1-0.4c-0.4,0-0.8,0.1-1.1,0.4c-0.3,0.3-0.4,0.6-0.5,1H61.3z"/>
		<path class="st0" d="M64.2,64h1.5v0.9h0c0.2-0.3,0.4-0.6,0.7-0.8c0.3-0.2,0.7-0.3,1-0.3c0.1,0,0.2,0,0.3,0c0.1,0,0.2,0,0.3,0.1
			v1.4c-0.1,0-0.2-0.1-0.4-0.1s-0.2,0-0.4,0c-0.3,0-0.6,0.1-0.8,0.2c-0.2,0.1-0.4,0.3-0.5,0.4c-0.1,0.2-0.2,0.3-0.2,0.5
			c0,0.2-0.1,0.3-0.1,0.4v3.2h-1.5V64z"/>
		<path class="st0" d="M69.3,64h1.4v0.9h0c0.1-0.3,0.4-0.6,0.6-0.8c0.3-0.2,0.7-0.3,1.2-0.3c0.4,0,0.7,0.1,1,0.2
			c0.3,0.1,0.5,0.3,0.7,0.5c0.2,0.2,0.3,0.5,0.4,0.7c0.1,0.3,0.1,0.6,0.1,0.9v3.7h-1.5v-3c0-0.2,0-0.3,0-0.5c0-0.2-0.1-0.4-0.1-0.6
			c-0.1-0.2-0.2-0.3-0.3-0.4c-0.1-0.1-0.3-0.2-0.6-0.2c-0.2,0-0.5,0-0.6,0.1c-0.2,0.1-0.3,0.2-0.4,0.3c-0.1,0.1-0.2,0.3-0.2,0.5
			c0,0.2-0.1,0.4-0.1,0.6v3.2h-1.5V64z"/>
		<path class="st0" d="M80.1,69L80.1,69c-0.3,0.3-0.5,0.6-0.8,0.7c-0.3,0.2-0.7,0.2-1.1,0.2c-0.3,0-0.5,0-0.8-0.1
			c-0.3-0.1-0.5-0.2-0.7-0.3c-0.2-0.1-0.4-0.3-0.5-0.6c-0.1-0.2-0.2-0.5-0.2-0.8c0-0.3,0.1-0.6,0.2-0.8c0.1-0.2,0.3-0.4,0.5-0.6
			c0.2-0.2,0.4-0.3,0.7-0.4s0.5-0.2,0.8-0.2c0.3,0,0.6-0.1,0.8-0.1c0.3,0,0.5,0,0.8,0h0.4V66c0-0.4-0.1-0.6-0.4-0.8
			c-0.3-0.2-0.6-0.3-1-0.3c-0.3,0-0.6,0.1-0.9,0.2c-0.3,0.1-0.5,0.3-0.7,0.4l-0.8-0.8c0.3-0.3,0.7-0.6,1.1-0.7
			c0.4-0.1,0.9-0.2,1.4-0.2c0.4,0,0.8,0,1.1,0.1c0.3,0.1,0.5,0.2,0.7,0.4s0.3,0.3,0.4,0.5c0.1,0.2,0.2,0.4,0.2,0.6
			c0,0.2,0.1,0.4,0.1,0.6c0,0.2,0,0.3,0,0.5v3.4h-1.3V69z M80,67.2h-0.3c-0.2,0-0.4,0-0.7,0c-0.3,0-0.5,0.1-0.7,0.1
			c-0.2,0.1-0.4,0.2-0.6,0.3c-0.2,0.1-0.2,0.3-0.2,0.5c0,0.1,0,0.3,0.1,0.3c0.1,0.1,0.1,0.2,0.2,0.2c0.1,0.1,0.2,0.1,0.3,0.1
			c0.1,0,0.2,0,0.4,0c0.5,0,0.9-0.1,1.1-0.4c0.2-0.2,0.4-0.6,0.4-1V67.2z"/>
		<path class="st0" d="M82.4,65.2V64h1.2v-1.7h1.5V64h1.6v1.3h-1.6v2.6c0,0.3,0.1,0.5,0.2,0.7c0.1,0.2,0.3,0.3,0.7,0.3
			c0.1,0,0.3,0,0.4,0c0.2,0,0.3-0.1,0.4-0.1v1.2c-0.2,0.1-0.3,0.1-0.6,0.2s-0.4,0-0.6,0c-0.4,0-0.7,0-1-0.1
			c-0.3-0.1-0.4-0.2-0.6-0.4c-0.1-0.2-0.2-0.4-0.3-0.7c-0.1-0.3-0.1-0.6-0.1-0.9v-2.7H82.4z"/>
		<path class="st0" d="M87.7,62c0-0.2,0.1-0.4,0.3-0.6c0.2-0.2,0.4-0.3,0.7-0.3c0.3,0,0.5,0.1,0.7,0.3c0.2,0.2,0.3,0.4,0.3,0.6
			c0,0.3-0.1,0.5-0.3,0.6c-0.2,0.2-0.4,0.3-0.7,0.3c-0.3,0-0.5-0.1-0.7-0.3C87.8,62.4,87.7,62.2,87.7,62z M87.9,64h1.5v5.9h-1.5V64z
			"/>
		<path class="st0" d="M90.9,66.9c0-0.5,0.1-0.9,0.3-1.3c0.2-0.4,0.4-0.7,0.7-1c0.3-0.3,0.6-0.5,1-0.6c0.4-0.1,0.8-0.2,1.3-0.2
			s0.9,0.1,1.3,0.2c0.4,0.1,0.7,0.4,1,0.6c0.3,0.3,0.5,0.6,0.7,1c0.2,0.4,0.3,0.8,0.3,1.3c0,0.5-0.1,0.9-0.3,1.3
			c-0.2,0.4-0.4,0.7-0.7,1c-0.3,0.3-0.6,0.5-1,0.6c-0.4,0.1-0.8,0.2-1.3,0.2s-0.9-0.1-1.3-0.2c-0.4-0.1-0.7-0.4-1-0.6
			c-0.3-0.3-0.5-0.6-0.7-1C91,67.8,90.9,67.4,90.9,66.9z M92.4,66.9c0,0.2,0,0.4,0.1,0.7c0.1,0.2,0.2,0.4,0.3,0.6
			c0.2,0.2,0.3,0.3,0.5,0.4c0.2,0.1,0.5,0.1,0.7,0.1c0.3,0,0.5,0,0.7-0.1c0.2-0.1,0.4-0.2,0.5-0.4c0.2-0.2,0.3-0.4,0.3-0.6
			c0.1-0.2,0.1-0.4,0.1-0.7c0-0.2,0-0.5-0.1-0.7c-0.1-0.2-0.2-0.4-0.3-0.6c-0.2-0.2-0.3-0.3-0.5-0.4c-0.2-0.1-0.5-0.1-0.7-0.1
			c-0.3,0-0.5,0-0.7,0.1c-0.2,0.1-0.4,0.2-0.5,0.4c-0.2,0.2-0.3,0.4-0.3,0.6C92.4,66.5,92.4,66.7,92.4,66.9z"/>
		<path class="st0" d="M98.7,64h1.4v0.9h0c0.1-0.3,0.4-0.6,0.6-0.8c0.3-0.2,0.7-0.3,1.2-0.3c0.4,0,0.7,0.1,1,0.2
			c0.3,0.1,0.5,0.3,0.7,0.5c0.2,0.2,0.3,0.5,0.4,0.7c0.1,0.3,0.1,0.6,0.1,0.9v3.7h-1.5v-3c0-0.2,0-0.3,0-0.5c0-0.2-0.1-0.4-0.1-0.6
			c-0.1-0.2-0.2-0.3-0.3-0.4c-0.1-0.1-0.3-0.2-0.6-0.2c-0.2,0-0.5,0-0.6,0.1c-0.2,0.1-0.3,0.2-0.4,0.3c-0.1,0.1-0.2,0.3-0.2,0.5
			c0,0.2-0.1,0.4-0.1,0.6v3.2h-1.5V64z"/>
		<path class="st0" d="M109.5,69L109.5,69c-0.3,0.3-0.5,0.6-0.8,0.7c-0.3,0.2-0.7,0.2-1.1,0.2c-0.3,0-0.5,0-0.8-0.1
			c-0.3-0.1-0.5-0.2-0.7-0.3c-0.2-0.1-0.4-0.3-0.5-0.6c-0.1-0.2-0.2-0.5-0.2-0.8c0-0.3,0.1-0.6,0.2-0.8c0.1-0.2,0.3-0.4,0.5-0.6
			c0.2-0.2,0.4-0.3,0.7-0.4s0.5-0.2,0.8-0.2c0.3,0,0.6-0.1,0.8-0.1c0.3,0,0.5,0,0.8,0h0.4V66c0-0.4-0.1-0.6-0.4-0.8
			c-0.3-0.2-0.6-0.3-1-0.3c-0.3,0-0.6,0.1-0.9,0.2c-0.3,0.1-0.5,0.3-0.7,0.4l-0.8-0.8c0.3-0.3,0.7-0.6,1.1-0.7
			c0.4-0.1,0.9-0.2,1.4-0.2c0.4,0,0.8,0,1.1,0.1c0.3,0.1,0.5,0.2,0.7,0.4s0.3,0.3,0.4,0.5c0.1,0.2,0.2,0.4,0.2,0.6
			c0,0.2,0.1,0.4,0.1,0.6c0,0.2,0,0.3,0,0.5v3.4h-1.3V69z M109.4,67.2h-0.3c-0.2,0-0.4,0-0.7,0c-0.3,0-0.5,0.1-0.7,0.1
			c-0.2,0.1-0.4,0.2-0.6,0.3c-0.2,0.1-0.2,0.3-0.2,0.5c0,0.1,0,0.3,0.1,0.3c0.1,0.1,0.1,0.2,0.2,0.2c0.1,0.1,0.2,0.1,0.3,0.1
			c0.1,0,0.2,0,0.4,0c0.5,0,0.9-0.1,1.1-0.4c0.2-0.2,0.4-0.6,0.4-1V67.2z"/>
		<path class="st0" d="M112.5,60.6h1.5v9.3h-1.5V60.6z"/>
	</g>
</g>
</svg>
