<svg xmlns="http://www.w3.org/2000/svg" xmlns:xlink="http://www.w3.org/1999/xlink" viewBox="0 0 158 135"><defs><filter id="a" width="187.5%" height="187.5%" x="-43.8%" y="-31.2%" filterUnits="objectBoundingBox"><feOffset dy="10" in="SourceAlpha" result="shadowOffsetOuter1"/><feGaussianBlur in="shadowOffsetOuter1" result="shadowBlurOuter1" stdDeviation="10"/><feColorMatrix in="shadowBlurOuter1" values="0 0 0 0 0.105882353 0 0 0 0 0.0784313725 0 0 0 0 0.254901961 0 0 0 0.1 0"/></filter><circle id="b" cx="40" cy="40" r="40"/></defs><g fill="none" fill-rule="evenodd"><g fill-rule="nonzero" opacity=".5"><path fill="#D5D9E0" d="M73.45 117.73l4.55-7.87v13.69H58v-18h2v12.54l5.5-9.54 6.5 3.78 4.24-7.33 1.73 1-5.23 9.05-6.51-3.75-5.92 10.25h2.26l4.39-7.56z"/><path fill="#D8DCE2" d="M79 0H63v2h16V0zM63 24h16v-2H63v2zM79 4H63c-1.1 0-2 .9-2 2v12c0 1.1.9 2 2 2h16c1.1 0 2-.9 2-2V6c0-1.1-.9-2-2-2zm-8 2.75c1.24 0 2.25 1.01 2.25 2.25s-1.01 2.25-2.25 2.25-2.25-1.01-2.25-2.25S69.76 6.75 71 6.75zM76 17H66v-1.5c0-1.67 3.33-2.5 5-2.5s5 .83 5 2.5V17zM31 88a3 3 0 100 6 3 3 0 000-6zm-6 2.166a2.5 2.5 0 000 5c.879 0 1.648-.455 2.094-1.14C26.424 93.183 26 92.148 26 91c0-.203.017-.403.041-.6A2.479 2.479 0 0025 90.166zm12 0c-.373 0-.723.088-1.041.234.024.197.041.397.041.6 0 1.148-.423 2.184-1.094 3.025A2.492 2.492 0 0037 95.166a2.5 2.5 0 000-5zM31 96c-2 0-6 1-6 3v2h12v-2c0-2-4-3-6-3zm-7.326.967c-1.677.29-3.674 1.075-3.674 2.367V101h3v-2c0-.78.288-1.468.674-2.033zm14.652 0c.386.565.674 1.254.674 2.033v2h3v-1.666c0-1.292-1.997-2.077-3.674-2.367z"/><path fill="#C7D0DD" d="M27 33.998h5.5l-5.5-5.5v5.5zm-7-7h8l6 6v12a2 2 0 01-2 2H19.99a1.992 1.992 0 01-1.99-2l.01-16c0-1.104.885-2 1.99-2zM29 43v-2h-9.01v2H29zm3-4v-2H19.99v2H32z"/><path fill="#D8DCE2" d="M8 60c-4.418 0-8 1.79-8 4s3.582 4 8 4 8-1.79 8-4-3.582-4-8-4zm-8 6v3c0 2.21 3.582 4 8 4s8-1.79 8-4v-3c0 2.21-3.582 4-8 4s-8-1.79-8-4zm0 5v3c0 2.21 3.582 4 8 4s8-1.79 8-4v-3c0 2.21-3.582 4-8 4s-8-1.79-8-4zm144-15c-1.105 0-1.99.896-1.99 2L142 74c0 1.104.886 2 1.99 2H156a2 2 0 002-2V62l-6-6h-8zm7 1.5l5.5 5.5H151v-5.5zm-1 7.518a3 3 0 013 3v1h1v4h-8v-4h1v-1a3 3 0 013-3zm0 2a1 1 0 00-1 1v1h2v-1a1 1 0 00-1-1z"/><path fill="#C7D0DD" d="M110 85h16a2 2 0 012 2v12a2 2 0 01-2 2h-16a2 2 0 01-2-2V87a2 2 0 012-2zm8 7l8-5h-16l8 5zm-8 7h16v-9.63l-8 4.989-8-4.989V99z"/><path fill="#D8DCE2" d="M112 40h4v10h-4V40zm7 1h4v9h-4v-9zm7-5h4v14h-4V36zm0-8h4v4h-1v-1.94l-8.03 8.031-3.97-3.97-4.596 4.596-1.06-1.06L117 32l3.97 3.97 6.97-6.97H126v-1z"/></g><g transform="translate(36 25)"><use fill="#000" filter="url(#a)" xlink:href="#b"/><use fill="#FFF" xlink:href="#b"/></g></g></svg>