<svg id="Layer_1" data-name="Layer 1" xmlns="http://www.w3.org/2000/svg" viewBox="0 0 60 60"><defs><style>.cls-1,.cls-2{fill:#3fb761;}.cls-2{fill-rule:evenodd;}</style></defs><title>icon_trangchu_tienich_04</title><g id="_Group_" data-name="&lt;Group&gt;"><circle id="_Path_" data-name="&lt;Path&gt;" class="cls-1" cx="41.11" cy="22.26" r="3.37"/><path id="_Compound_Path_" data-name="&lt;Compound Path&gt;" class="cls-2" d="M3608.5,2307.58a30,30,0,1,0,30,30A30,30,0,0,0,3608.5,2307.58Zm-8.15,44.63-9.85-9.85a3.39,3.39,0,0,1,0-4.77l13.23-13.23a9.38,9.38,0,0,1,5.76-2.39l-17.2,17.2a1.13,1.13,0,0,0,0,1.59l12,12A3.39,3.39,0,0,1,3600.35,2352.21Zm26.65-19a9.14,9.14,0,0,1-2.14,5.76l-13.11,13.23a3.32,3.32,0,0,1-4.71,0l-9.82-9.85a3.39,3.39,0,0,1,0-4.77l13.23-13.21a9.39,9.39,0,0,1,5.77-2.37h7.88c1.86,0,2.89,1.49,2.89,3.34v7.87Z" transform="translate(-3578.5 -2307.58)"/></g></svg>