<svg id="Layer_1" data-name="Layer 1" xmlns="http://www.w3.org/2000/svg" viewBox="0 0 60 60"><defs><style>.cls-1{fill:#3fb761;}</style></defs><title>icon_trangchu_tienich_01</title><path id="_Compound_Path_" data-name="&lt;Compound Path&gt;" class="cls-1" d="M2753,2307.58a30,30,0,1,0,30,30,30,30,0,0,0-30-30h0Zm0.09,44.15h-13c0-9.37,8.23-9.37,10.06-11.82l0.21-1.12c-2.57-1.3-4.38-4.44-4.38-8.1,0-4.83,3.14-8.75,7-8.75s7,3.92,7,8.75c0,3.64-1.78,6.75-4.31,8.07l0.24,1.27c2,2.33,10,2.48,10,11.7h-12.81Zm0,0" transform="translate(-2723 -2307.58)"/></svg>